<?xml version="1.0" encoding="utf-8"?>
<!-- Generator: Adobe Illustrator 26.0.2, SVG Export Plug-In . SVG Version: 6.00 Build 0)  -->
<svg version="1.1" id="Layer_1" xmlns="http://www.w3.org/2000/svg" xmlns:xlink="http://www.w3.org/1999/xlink" x="0px" y="0px"
	 viewBox="0 0 1221 499" style="enable-background:new 0 0 1221 499;" xml:space="preserve">
<style type="text/css">
	.st0{fill:#0BAB4B;}
	.st1{fill:#06AC38;}
	.st2{fill:#FFFFFF;}
</style>
<g>
	<g>
		<path class="st0" d="M834.67,346.92l-15.11,42.76c-2.72,7.71-4.08,12.09-6.66,19.49h-0.3c-1.97-6.34-3.78-11.48-6.35-19.03
			l-14.65-43.21h-17.53l30.36,79.32c-0.67,1.74-1.38,3.53-2.13,5.34c-2.53,6.18-8.55,10.22-15.23,10.22h-7.53v13.41h7.77
			c12.55,0,23.84-7.64,28.5-19.29c9.68-24.2,26.13-65.38,35.46-89.01H834.67z"/>
		<path class="st0" d="M413.73,410.97c0,28.71-13.15,44.27-39.74,44.27c-19.79,0-31.73-10.43-35.96-26.14h16.02
			c2.72,7.25,8.46,13.75,20.25,13.75c18.13,0,24.63-11.33,24.63-32.79c-0.15,0-0.15-0.15-0.3-0.15
			c-3.93,6.8-12.69,12.84-26.59,12.84c-22.36,0-36.57-16.17-36.57-38.83c0-23.57,15.41-39.44,36.72-39.44
			c13.75,0,22.06,5.89,26.59,12.39c-0.15-1.66-0.15-3.32-0.15-4.99v-4.99h15.11V410.97z M352.08,383.77
			c0,15.41,8.61,26.44,23.42,26.44c13.3,0,23.57-9.37,23.57-26.9c0-15.56-9.07-25.99-23.57-25.99S352.08,367.75,352.08,383.77z"/>
		<path class="st0" d="M438.72,390.57c0.6,13.9,9.52,24.93,24.93,24.93c10.88,0,16.17-5.14,20.25-11.94h15.26
			c-4.53,14.35-17.07,24.63-36.11,24.63c-24.48,0-39.74-16.47-39.74-41.25c0-24.78,15.87-42.31,39.74-42.31
			c25.84,0,37.77,19.64,37.77,40.95v4.99H438.72z M484.96,378.48c-1.36-12.54-9.22-21.46-22.21-21.46
			c-12.39,0-21.91,8.16-23.42,21.46H484.96z"/>
		<path class="st0" d="M525.28,346.9v10.12c2.57-7.4,10.28-12.09,19.19-12.09c1.96,0,2.87,0.15,3.93,0.3v13.9
			c-1.36-0.3-3.63-0.45-5.29-0.45c-14.35,0-17.07,10.58-17.07,26.44v41.1h-15.26v-65.12c0-4.99,0-9.37-0.15-14.2H525.28z"/>
		<path class="st0" d="M705.27,414.9c-4.08,6.8-11.79,13.3-25.23,13.3c-18.43,0-27.5-11.33-27.5-31.88V346.9h15.26v43.67
			c0,15.56,5.14,24.93,17.53,24.93c16.32,0,19.19-14.81,19.19-32.18V346.9h15.26v67.39c0,4.08,0,8.01,0.15,11.94h-14.66V414.9z"/>
		<path class="st0" d="M754.14,346.9h14.81v11.79h-14.81v47.6c0,7.56,3.78,9.82,9.67,9.82c1.06,0,2.87-0.15,3.78-0.3v11.33
			c-2.27,0.3-3.93,0.6-5.89,0.6c-14.05,0-22.97-4.68-22.97-20.55v-48.5h-11.94V346.9h11.94v-21.46h15.41V346.9z"/>
		<g>
			<rect x="183.36" y="397.44" class="st0" width="15.85" height="28.79" />
			<path class="st0" d="M242.95,323.48c-8.45-4.53-14.38-5.28-28.27-5.28h-31.32v65.51h15.85h2.05h13.28
				c12.38,0,21.63-0.75,29.78-6.19c8.91-5.89,13.5-15.7,13.5-27.02C257.81,338.27,252.16,328.46,242.95,323.48z M218.15,369.97
				H199.2v-37.74l17.89-0.15c16.3-0.15,24.45,5.58,24.45,18.57C241.55,364.68,231.43,369.97,218.15,369.97z"/>
		</g>
		<path class="st0" d="M557.72,318.19h26.45c39.57,0.26,58.63,19.59,58.78,54.24c0.12,29.51-15.17,53.41-56.21,53.79l-29.02,0
			V318.19z M573.74,412.78h9.22c28.73,0,43.75-10.98,43.7-40.34c-0.05-25.83-14.96-40.65-42.18-40.65
			c-5.29-0.02-10.73,0.15-10.73,0.15V412.78z"/>
		<path class="st0" d="M313.34,426.23c-0.45-3.17-0.45-5.14-0.76-10.88c-6.04,8.61-14.05,12.39-26.74,12.39
			c-16.62,0-28.71-8.16-28.71-22.97c0-17.07,16.32-22.67,37.47-25.54c5.29-0.76,11.18-1.36,16.32-1.81
			c0-15.72-8.74-20.45-17.82-20.45s-15.73,6.4-15.73,14.7h-14.8c0-16.11,12.68-26.9,30.87-26.9c18.19,0,32.29,7.56,32.29,36.57
			v15.41c0,12.84,0.6,22.21,1.96,29.46H313.34z M273.6,404.62c0,7.4,6.04,12.09,15.71,12.09c14.2,0,21.76-8.61,21.76-24.02
			c0-1.96,0-3.32,0.15-4.23C285.39,391.02,273.6,393.59,273.6,404.62z"/>
	</g>
	<g>
		<path class="st2" d="M75.73,252.19H28.21V43.76h76.96c24.49,0,41.69,2.62,56.26,12.83c15.16,11.08,23.61,28.57,23.61,48.68
			c0,36.44-22.15,55.68-46.06,63.55l52.18,83.37h-53.64l-44.02-75.21H75.73V252.19z M75.73,138.79h26.82
			c22.45,0,35.86-9.04,35.86-27.4c0-19.82-13.99-27.11-39.06-27.11H75.73V138.79z"/>
		<path class="st2" d="M341.58,99.15v129.72c0,7.87,0,15.45,0.29,23.32h-43.44V231.2c-6.41,12.54-20.7,24.78-46.06,24.78
			c-20.7,0-36.73-9.04-45.77-24.49c-7.58-13.41-8.75-27.69-8.75-53.93V99.15h45.48v74.04c0,30.61,4.66,47.22,24.49,47.22
			c19.82,0,28.28-14.87,28.28-42.85V99.15H341.58z"/>
		<path class="st2" d="M363.45,252.19V122.47c0-7.87,0-15.45-0.29-23.32h43.44v20.99c6.41-12.54,21.86-24.78,47.22-24.78
			c20.7,0,36.73,9.04,45.77,24.49c7.58,13.41,8.75,27.69,8.75,53.93v78.42h-45.48v-74.04c0-30.61-5.25-47.22-25.07-47.22
			c-19.82,0-28.86,14.87-28.86,42.85v78.42H363.45z"/>
		<path class="st2" d="M636.59,252.19c0-6.12,0-15.45,0.29-20.41c-6.7,10.79-21.86,24.2-48.1,24.2c-41.1,0-68.51-31.19-68.51-80.17
			c0-49.85,28.28-81.04,67.92-81.04c25.36,0,39.06,11.66,46.06,20.41c0-7.58-0.29-23.61-0.29-31.19V43.76h45.48v208.43H636.59z
			 M568.38,174.94c0,26.24,12.83,45.77,34.4,45.77s34.11-18.95,34.11-46.64c0-27.11-13.7-44.6-34.11-44.6
			C581.21,129.46,568.38,148.7,568.38,174.94z"/>
		<path class="st2" d="M849.39,206.71c-9.33,29.73-35.86,50.14-76.96,50.14c-48.68,0-79.87-31.77-79.87-81.62c0-47.52,32.94-81.33,80.75-81.33
			c51.01,0,78.42,34.69,78.42,84.83c0,2.92-0.29,7.58-0.29,7.58H737.75c1.75,22.74,16.03,36.44,36.15,36.44
			c13.7,0,23.9-5.54,29.15-16.03H849.39z M805.96,158.03c-2.33-20.11-13.99-31.77-32.94-31.77c-18.37,0-31.48,11.66-34.11,31.77
			H805.96z"/>
		<path class="st2" d="M1022.55,197.68c-7,35.27-34.11,59.18-76.08,59.18c-49.27,0-80.75-33.82-80.75-81.04c0-47.81,32.65-81.62,81.04-81.62
			c40.81,0,68.51,21.28,75.5,59.18h-45.77c-4.08-14.87-13.99-23.32-29.15-23.32c-21.28,0-34.69,17.49-34.69,45.48
			c0,29.73,13.41,45.18,35.86,45.18c13.12,0,25.65-7,29.44-23.03H1022.55z"/>
		<path class="st2" d="M1039.45,252.19V43.76h45.48v123.31h0.29c7.87-10.79,40.52-58.89,46.35-67.92h54.8c-22.15,27.4-50.43,60.63-57.14,70.25
			c11.66,16.91,41.98,55.39,63.55,82.79h-57.72c-17.2-27.11-46.35-66.46-49.85-75.21h-0.29v75.21H1039.45z"/>
	</g>
	<g>
		<path class="st1" d="M28.79,358.05h11.65v14.6c0,3.44,0,6.4-0.1,9.93c2.86-4.11,8.59-8.02,16.42-8.02
			c14.41,0,23.48,11.36,23.48,26.54c0,15.66-9.45,26.35-23.2,26.35c-8.59,0-14.32-3.82-17.28-8.21c0,1.24,0.1,2.48,0.1,3.63v3.44
			H28.79V358.05z M39.96,400.91c0,9.83,5.35,17.09,14.41,17.09c8.78,0,13.94-7.16,13.94-16.71c0-9.55-5.16-17.09-13.94-17.09
			C45.97,384.21,39.96,391.27,39.96,400.91z"/>
		<path class="st1" d="M93.32,443.49l7.83-18.52c-5.73-15.18-12.7-33.03-18.9-48.78h12.79c5.54,15.94,8.69,25.96,12.22,35.8
			c3.05-8.3,8.11-23.96,12.22-35.8h12.51c-8.78,22.15-17.47,44.39-26.82,67.3H93.32z"/>
	</g>
</g>
</svg>
