<svg width="167" height="24" fill="none" xmlns="http://www.w3.org/2000/svg"><path fill-rule="evenodd" clip-rule="evenodd" d="M84.51 16.22L68.74 0v22.706h3.263V7.82L87.772 24V1.445H84.51V16.22zm-43.106-4.653c.88-1.084 1.32-2.378 1.32-3.884 0-1.927-.702-3.478-2.102-4.653-1.27-1.056-3.333-1.585-6.19-1.585H30.61v21.261h3.263v-8.702h.587l6.176 8.702h3.992l-6.695-9.061c1.439-.302 2.596-.995 3.472-2.078zm-7.532-.358V4.46h1.161c3.007 0 4.51 1.089 4.51 3.264 0 2.323-1.546 3.484-4.634 3.484h-1.037zm25.514 7.048c.608-.815.911-2.151.911-4.005V1.445h3.263v13.688c0 2.24-.709 4.085-2.128 5.535-1.598 1.616-3.557 2.422-5.883 2.422-2.323 0-4.28-.806-5.867-2.422-1.42-1.45-2.129-3.296-2.129-5.535V1.445h3.265v12.807c0 1.827.303 3.161.908 4.005.906 1.222 2.179 1.832 3.823 1.832 1.652 0 2.933-.61 3.837-1.832zm41.956.979a7.436 7.436 0 002.632-1.529c1.607-1.44 2.41-3.317 2.41-5.63 0-2.333-.793-4.224-2.381-5.674-1.428-1.294-3.534-1.943-6.316-1.943h-1.47v15.23h1.47c1.465 0 2.684-.15 3.655-.454zm4.985-15.05c-1.102-.991-2.329-1.693-3.682-2.107-1.261-.422-2.978-.634-5.153-.634h-4.538v21.26h4.48c2.194 0 3.889-.197 5.084-.592 1.279-.394 2.501-1.097 3.669-2.107 2.325-2.018 3.487-4.661 3.487-7.93 0-3.259-1.114-5.888-3.347-7.89zm19.383 18.52h-11.932V1.445h11.932v3.016h-8.669V9.57h8.416v3.016h-8.416v7.106h8.669v3.015zm5.938-17.776c-1.822 2.12-2.733 4.534-2.733 7.244 0 3.018 1.088 5.598 3.264 7.736 2.185 2.12 4.822 3.18 7.912 3.18 2.055 0 4.014-.517 5.881-1.554v-3.87c-.53.441-1.038.817-1.519 1.129-.481.313-.944.56-1.393.744-.804.366-1.778.551-2.927.551-2.222 0-4.099-.767-5.631-2.299-1.53-1.535-2.295-3.416-2.295-5.648 0-2.257.765-4.165 2.295-5.726 1.522-1.57 3.395-2.354 5.617-2.354 2.017 0 3.968.776 5.853 2.327v-3.8c-1.811-1.039-3.687-1.557-5.629-1.557-3.557 0-6.455 1.298-8.696 3.896l.001.001zm35.079-3.483l-9.775 9.623 9.831 11.634h-4.37l-7.787-9.459-.671.66v8.8h-3.262V1.444h3.262v8.483l8.416-8.481h4.356z" fill="#000"/><path fill-rule="evenodd" clip-rule="evenodd" d="M17.15 5.693l-2.697-4.28H0l2.697 4.28H17.15zM0 22.812h14.453l2.697-4.28H2.697L0 22.812zm5.393-12.84h14.453l1.348 2.14-1.348 2.141H5.393l1.348-2.14-1.348-2.14z" fill="#f73f39"/></svg>