<?xml version="1.0" encoding="UTF-8"?><svg id="Layer_1" xmlns="http://www.w3.org/2000/svg" viewBox="0 0 2000 344" style="background-color:#dbd9d9;"><defs><style>.cls-1{stroke-width:3.56px;}.cls-1,.cls-2,.cls-3,.cls-4,.cls-5,.cls-6,.cls-7,.cls-8,.cls-9,.cls-10{fill:none;stroke:#e6e8e7;stroke-miterlimit:10;}.cls-2{stroke-width:3.03px;}.cls-3{stroke-width:1.71px;}.cls-4{stroke-width:2.24px;}.cls-5{stroke-width:2.51px;}.cls-6{stroke-width:1.45px;}.cls-7{stroke-width:1.19px;}.cls-8{stroke-width:3.3px;}.cls-9{stroke-width:2.77px;}.cls-10{stroke-width:1.98px;}</style></defs><path class="cls-7" d="m1337.86,214.46c-33.08-2.33-78.65-5.62-131.82-4.77-90.93,1.45-120.68,14.32-165.79,11.6-49.7-2.99-78.81.87-118-9.77-207.99-56.48-132.37,13.62-154.27,27.31-50.89,31.82-99.79-30.48-159.47-29.37-57.74,1.08-95.46,32.23-154.53,33.18-71.74,1.15-154.66-35.33-302.01-32.97-38.01.61-74.82,4.22-111.52,11.32"/><path class="cls-6" d="m1337.83,212.13c-31.35-2.57-76.24-6.28-128.66-5.88-27.6.27-49.86,1.63-68.83,3.35-39.67,3.68-63.42,8.95-93.06,8.02-48.26-1.35-76.77,4.76-113.4-2.88-106.6-22.22-133.59-12.86-142.53,1.51-6.48,10.42,1.82,26.25-7.6,31.73-30.86,17.85-58.16,4.56-93.69-9.34-20.05-7.85-40.61-16.17-62.69-16.21-55.83,0-93.91,25.93-150.86,25.92-17.58-.07-35.76-2.14-55.28-4.91-60.86-8.64-130.32-38.53-235.49-36.85-20.38.33-38.6,8.39-59.52,10.32-28.07,2.57-51.45,1.55-85.73,6.03"/><path class="cls-3" d="m1337.79,209.79c-29.63-2.81-73.83-7.05-125.5-6.99-26.39.03-48.23,1.15-67.21,2.73-38.48,3.2-62.31,8.31-90.78,8.4-46.82.15-74.65,8.62-108.8,4.01-97.39-13.16-123.08-2.37-135.64,11.3-7.83,8.52-1.21,23.01-10.35,27.87-30.08,16.03-53.81,5.79-91.87-6.83-19.79-6.56-39.9-14.41-61.42-14.91-53.92-1.07-92.36,19.81-147.2,18.66-17.27-.36-35.03-2.5-53.97-4.85-61.21-7.59-125.82-47.3-225.55-45.7-25.04.4-45.95,15.76-72.39,18.31-34.33,3.28-59.55-1.72-106.59,3.07"/><path class="cls-10" d="m1337.75,207.46c-27.9-3.05-71.42-7.75-122.34-8.1-25.17-.17-46.59.7-65.59,2.12-37.28,2.78-61.21,7.74-88.5,8.78-45.38,1.75-72.43,12.45-104.2,10.9-87.95-4.3-112.07,8.18-128.76,21.09-8.77,6.78-4.25,19.75-13.09,24.02-29.34,14.15-49.37,6.9-90.04-4.31-19.48-5.37-39.19-12.7-60.16-13.61-52.01-2.27-90.82,13.57-143.54,11.4-16.96-.7-34.31-2.84-52.65-4.78-61.57-6.51-121.32-56.07-215.62-54.56-29.7.47-53.29,23.13-85.26,26.3-40.6,3.99-67.64-5-127.45.11"/><path class="cls-4" d="m1337.71,205.12c-26.17-3.29-69.01-8.44-119.17-9.21-23.95-.37-44.96.26-63.97,1.5-36.08,2.37-60.11,7.17-86.22,9.16-43.95,3.36-70.12,16.19-99.59,17.78-78.26,4.24-100.66,19.1-121.88,30.88-9.48,5.27-7.3,16.49-15.84,20.16-28.61,12.27-44.87,7.87-88.22-1.8-19.14-4.27-38.48-10.94-58.89-12.31-50.09-3.36-89.27,7.3-139.88,4.14-16.64-1.04-33.6-3.18-51.34-4.72-61.94-5.38-116.82-64.83-205.69-63.41-34.36.55-60.64,30.5-98.14,34.28-46.86,4.7-75.74-8.27-148.31-2.84"/><path class="cls-5" d="m1337.68,202.79c-24.45-3.53-66.6-9.11-116.01-10.32-22.74-.56-43.32-.18-62.35.89-34.88,1.97-59.01,6.62-83.94,9.55-42.52,4.99-67.72,19.78-94.99,24.67-68.39,12.27-89.06,30.54-114.99,40.67-10.13,3.96-10.34,13.23-18.58,16.3-27.88,10.38-40.33,8.67-86.39.72-18.78-3.24-37.77-9.19-57.63-11.01-48.18-4.44-87.73,1.01-136.22-3.11-16.33-1.39-32.88-3.49-50.03-4.65-62.31-4.21-112.32-73.6-195.75-72.27-39.02.62-67.99,37.87-111.01,42.27-53.12,5.41-83.83-11.55-169.17-5.8"/><path class="cls-9" d="m1337.64,200.45c-22.72-3.77-64.19-9.76-112.85-11.43-21.52-.74-41.69-.62-60.73.28-33.68,1.58-57.9,6.08-81.66,9.93-41.09,6.65-65.3,23.13-90.39,31.56-58.48,19.65-77.44,42.51-108.11,50.46-10.8,2.8-13.39,9.96-21.33,12.44-27.16,8.47-35.77,9.28-84.57,3.23-18.42-2.28-37.06-7.42-56.36-9.72-46.27-5.5-86.18-5.31-132.56-10.37-16.02-1.75-32.16-3.8-48.71-4.59-62.69-3-107.82-82.37-185.82-81.12-43.67.7-75.34,45.24-123.88,50.26-59.39,6.11-91.93-14.82-190.03-8.76"/><path class="cls-2" d="m1337.6,198.12c-21-4.01-61.78-10.39-109.68-12.54-20.3-.91-40.05-1.04-59.11-.34-32.48,1.2-56.8,5.56-79.38,10.31-39.65,8.33-63,26.17-85.79,38.45-48.85,26.32-65.91,54.94-101.23,60.24-11.56,1.74-16.44,6.69-24.07,8.58-26.44,6.54-31.21,9.69-82.74,5.75-18.05-1.38-36.35-5.65-55.09-8.42-44.36-6.55-84.63-11.66-128.9-17.63-15.71-2.12-31.45-4.09-47.4-4.52-63.06-1.72-103.31-91.14-175.88-89.98-48.33.77-82.69,52.61-136.75,58.24-65.65,6.82-100.02-18.1-210.89-11.71"/><path class="cls-8" d="m1337.56,195.79c-19.27-4.25-59.38-10.91-106.52-13.65-19.09-1.04-38.42-1.44-57.49-.95-31.27.88-55.68,5.05-77.1,10.69-38.2,10.05-61.04,28.92-81.18,45.34-39.89,32.5-54.54,67.68-94.34,70.03-12.4.73-19.5,3.41-26.82,4.72-25.73,4.59-26.67,9.89-80.92,8.27-17.71-.53-35.64-3.84-53.83-7.12-42.47-7.52-83.07-18.04-125.24-24.89-15.39-2.5-30.73-4.37-46.09-4.46-63.43-.39-98.81-99.9-165.95-98.83-52.99.85-90.04,59.98-149.63,66.23-71.91,7.53-108.12-21.37-231.76-14.67"/><path class="cls-1" d="m1337.53,193.45c-24.3-6.22-90.62-17.42-159.22-16.32-186.58,2.98-158.15,144.57-238.86,143.12-60.86-1.1-35.78,10.48-108.66,11.64-72.4,1.16-147.84-43.49-218.92-42.36-63.8,1.02-94.31-108.67-156.01-107.69-57.65.92-97.38,67.35-162.5,74.22-78.17,8.24-116.21-24.65-252.62-17.63"/></svg>