<?xml version="1.0" encoding="UTF-8"?><svg id="Layer_1" xmlns="http://www.w3.org/2000/svg" viewBox="0 0 1365.94 438.37"><defs><style>.cls-1{fill:none;stroke:#005a2f;stroke-miterlimit:10;stroke-width:1.66px;}</style></defs><path class="cls-1" d="m359.91,344.09c-84.01-27.13-162.9-74.99-153.26-117.66,10.22-42.37-73.58-130.96,10.42-170.29,78.65-38.37,96.45,150.41,315.82,126.19,83.44-7.32,283.37-143.68,374.76-104.36,91.39,39.02,177.1,91.14,183.91,146.62,6.24,55.78-66.98,114.62-158.36,141.75-91.39,27.13-200.93,22.25-300.83,16.77-99.33-5.79-188.45-11.89-272.45-39.02Z"/><path class="cls-1" d="m377.91,345.64c-78.32-25.4-151.69-70.01-142.3-109.55,9.92-39.25-59.69-119.13,19.21-155.34,74.13-35.35,93.5,131.09,292.4,109.52,78.09-6.53,260.07-126.45,345.19-89.72,85.12,36.45,164.82,85.03,170.71,136.49,5.36,51.74-63.62,106.07-149.31,130.95-85.69,24.88-188.09,20.03-281.46,14.64-92.84-5.67-176.12-11.59-254.44-36.99Z"/><path class="cls-1" d="m395.91,347.18c-72.64-23.68-140.48-65.04-131.35-101.44,9.62-36.14-45.79-107.29,27.99-140.39,69.61-32.32,90.56,111.77,268.98,92.84,72.74-5.75,236.76-109.22,315.61-75.08,78.86,33.88,152.55,78.92,157.52,126.36,4.48,47.69-60.25,97.52-140.25,120.14-79.99,22.63-175.24,17.81-262.08,12.52-86.34-5.54-163.79-11.28-236.43-34.96Z"/><path class="cls-1" d="m413.92,348.73c-66.95-21.95-129.26-60.06-120.39-93.32,9.32-33.02-31.89-95.46,36.77-125.44,65.09-29.3,87.62,92.45,245.55,76.17,67.39-4.97,213.46-92,286.04-60.45,72.59,31.31,140.27,72.81,144.33,116.23,3.59,43.65-56.89,88.96-131.19,109.34-74.3,20.38-162.39,15.59-242.71,10.4-79.85-5.42-151.46-10.98-218.41-32.94Z"/><path class="cls-1" d="m431.92,350.28c-61.27-20.23-118.05-55.09-109.44-85.21,9.02-29.9-18-83.63,45.56-110.49,60.57-26.28,84.67,73.13,222.13,59.5,62.03-4.19,190.15-74.77,256.47-45.81,66.33,28.74,128,66.7,131.14,106.1,2.71,39.6-53.53,80.41-122.13,98.54-68.6,18.13-149.55,13.36-223.33,8.28-73.35-5.29-139.13-10.68-200.4-30.91Z"/><path class="cls-1" d="m449.92,351.83c-55.59-18.5-106.83-50.11-98.48-77.1,8.72-26.78-4.1-71.79,54.34-95.54,56.05-23.26,81.73,53.81,198.71,42.82,56.68-3.4,166.85-57.54,226.9-31.18,60.06,26.17,115.73,60.59,117.94,95.96,1.82,35.56-50.17,71.86-113.07,87.74-62.9,15.88-136.7,11.14-203.95,6.16-66.86-5.17-126.8-10.38-182.39-28.88Z"/><path class="cls-1" d="m467.93,353.37c-49.9-16.78-95.62-45.13-87.53-68.98,8.42-23.67,9.8-59.96,63.12-80.59,51.53-20.24,78.79,34.49,175.29,26.15,51.33-2.62,143.54-40.31,197.33-16.54,53.8,23.6,103.45,54.48,104.75,85.83.94,31.51-46.81,63.31-104.01,76.94-57.21,13.63-123.85,8.92-184.58,4.04-60.36-5.04-114.47-10.08-164.37-26.85Z"/><path class="cls-1" d="m485.93,354.92c-44.22-15.05-84.4-40.16-76.57-60.87,8.12-20.55,23.69-48.13,71.91-65.64,47.01-17.22,75.84,15.17,151.86,9.48,45.98-1.84,120.24-23.09,167.75-1.9,47.53,21.03,91.18,48.37,91.56,75.7.05,27.47-43.45,54.76-94.96,66.14-51.51,11.38-111.01,6.69-165.2,1.91-53.87-4.92-102.14-9.77-146.36-24.83Z"/><path class="cls-1" d="m503.93,356.47c-38.54-13.33-73.19-35.18-65.62-52.76,7.82-17.43,37.59-36.29,80.69-50.69,42.48-14.19,72.9-4.16,128.44-7.19,40.63-1.05,96.94-5.86,138.18,12.73,41.27,18.47,78.9,42.26,78.37,65.57-.83,23.42-40.08,46.21-85.9,55.34-45.81,9.13-98.16,4.47-145.83-.21-47.37-4.79-89.81-9.47-128.34-22.8Z"/><path class="cls-1" d="m521.94,358.01c-32.85-11.6-61.98-30.21-54.66-44.64,7.53-14.31,51.49-24.46,89.48-35.74,37.96-11.17,69.95-23.48,105.02-23.87,35.28-.27,73.63,11.37,108.61,27.37,35,15.9,66.63,36.15,65.18,55.44-1.71,19.38-36.72,37.66-76.84,44.54-40.12,6.88-85.31,2.25-126.45-2.33-40.88-4.67-77.48-9.17-110.33-20.77Z"/></svg>